<svg width="28" height="28" viewBox="0 0 28 28" fill="none" xmlns="http://www.w3.org/2000/svg">
<path d="M26.2705 1.63948H20.8555V0.825378C20.8555 0.369632 20.4855 0 20.0291 0C19.5728 0 19.2027 0.369632 19.2027 0.825378V1.63948H14.3748V0.825378C14.3748 0.369632 14.0047 0 13.5484 0C13.0921 0 12.722 0.369632 12.722 0.825378V1.63948H8.09926V0.825378C8.09926 0.369632 7.72917 0 7.27286 0C6.81655 0 6.44646 0.369632 6.44646 0.825378V1.63948H0.826398C0.370089 1.63948 6.04221e-09 2.00911 6.04221e-09 2.46485V21.1146C6.04221e-09 21.5703 0.370089 21.9399 0.826398 21.9399H5.89856C6.71132 25.4085 9.83152 28 13.5484 28C17.2653 28 20.3855 25.4083 21.1982 21.9399H26.2704C26.7267 21.9399 27.0968 21.5703 27.0968 21.1146V2.46485C27.0969 2.00911 26.727 1.63948 26.2705 1.63948ZM6.44646 3.29023V4.0361C6.44646 4.49185 6.81655 4.86148 7.27286 4.86148C7.72917 4.86148 8.09926 4.49185 8.09926 4.0361V3.29023H12.722V4.0361C12.722 4.49185 13.0921 4.86148 13.5484 4.86148C14.0047 4.86148 14.3748 4.49185 14.3748 4.0361V3.29023H19.2027V4.0361C19.2027 4.49185 19.5728 4.86148 20.0291 4.86148C20.4855 4.86148 20.8555 4.49185 20.8555 4.0361V3.29023H25.4441V6.66548H1.6528V3.29023H6.44646ZM13.5484 26.3492C10.1268 26.3492 7.3431 23.569 7.3431 20.1516C7.3431 16.7343 10.1268 13.954 13.5484 13.954C16.97 13.954 19.7537 16.7341 19.7537 20.1516C19.7537 23.5691 16.9701 26.3492 13.5484 26.3492ZM21.403 20.2892C21.4039 20.2432 21.4065 20.1977 21.4065 20.1516C21.4065 15.824 17.8813 12.3032 13.5484 12.3032C9.21544 12.3032 5.6903 15.824 5.6903 20.1516C5.6903 20.1977 5.69306 20.2432 5.69375 20.2892H1.65266V8.31638H25.444V20.2892H21.403Z" fill="#002F63" fill-opacity="0.5"/>
<path d="M14.3747 20.3598V16.3669C14.3747 15.9111 14.0046 15.5415 13.5483 15.5415C13.092 15.5415 12.7219 15.9111 12.7219 16.3669V20.7018C12.7219 20.9206 12.809 21.1306 12.9639 21.2855L14.8633 23.1826C15.0247 23.3437 15.2361 23.4243 15.4477 23.4243C15.6591 23.4243 15.8706 23.3437 16.0321 23.1826C16.3548 22.8603 16.3548 22.3377 16.0321 22.0154L14.3747 20.3598Z" fill="#002F63" fill-opacity="0.5"/>
</svg>
