<svg width="12" height="22" viewBox="0 0 12 22" fill="none" xmlns="http://www.w3.org/2000/svg">
<path d="M11.5481 0.00457747L8.66986 0C5.43624 0 3.34653 2.12509 3.34653 5.41423V7.91055H0.452578C0.202505 7.91055 0 8.1115 0 8.35937V11.9763C0 12.2241 0.202736 12.4249 0.452578 12.4249H3.34653V21.5514C3.34653 21.7993 3.54904 22 3.79911 22H7.5749C7.82497 22 8.02748 21.799 8.02748 21.5514V12.4249H11.4112C11.6613 12.4249 11.8638 12.2241 11.8638 11.9763L11.8652 8.35937C11.8652 8.24036 11.8174 8.12638 11.7326 8.04215C11.6479 7.95793 11.5324 7.91055 11.4123 7.91055H8.02748V5.79439C8.02748 4.77728 8.27201 4.26094 9.60873 4.26094L11.5477 4.26025C11.7975 4.26025 12 4.0593 12 3.81166V0.453169C12 0.205757 11.7977 0.00503522 11.5481 0.00457747Z" fill="white"/>
</svg>
