<svg width="24" height="18" viewBox="0 0 24 18" fill="none" xmlns="http://www.w3.org/2000/svg">
<path fill-rule="evenodd" clip-rule="evenodd" d="M20.184 0.14497C21.6225 0.230061 22.329 0.453818 22.98 1.6703C23.658 2.88521 24 4.97782 24 8.66352V8.66824V8.67612C24 12.3445 23.658 14.4528 22.9815 15.6552C22.3305 16.8716 21.624 17.0922 20.1855 17.1947C18.747 17.2813 15.1335 17.3333 12.003 17.3333C8.8665 17.3333 5.2515 17.2813 3.8145 17.1931C2.379 17.0907 1.6725 16.8701 1.0155 15.6536C0.345 14.4513 0 12.3429 0 8.67455V8.67139V8.66667V8.66194C0 4.97782 0.345 2.88521 1.0155 1.6703C1.6725 0.452242 2.3805 0.230061 3.816 0.143394C5.2515 0.0425454 8.8665 0 12.003 0C15.1335 0 18.747 0.0425455 20.184 0.14497ZM16.5 8.66667L9 3.93939V13.3939L16.5 8.66667Z" fill="white"/>
</svg>
